<svg xmlns="http://www.w3.org/2000/svg" width="66" height="22" viewBox="0 0 66 22">
  <g id="Group_11" data-name="Group 11" transform="translate(-96 -1693)">
    <g id="Group_10" data-name="Group 10">
      <g id="Group_9" data-name="Group 9">
        <g id="Rectangle_10" data-name="Rectangle 10" transform="translate(96 1693)" fill="#fff" stroke="#000" stroke-width="1">
          <rect width="66" height="22" stroke="none"/>
          <rect x="0.5" y="0.5" width="65" height="21" fill="none"/>
        </g>
      </g>
      <line id="Line_6" data-name="Line 6" y2="20" transform="translate(102 1694)" fill="none" stroke="#000" stroke-width="1"/>
      <line id="Line_12" data-name="Line 12" y2="20" transform="translate(120 1694)" fill="none" stroke="#000" stroke-width="1"/>
      <path id="Path_6" data-name="Path 6" d="M0,17" transform="translate(105 1694)" fill="none" stroke="#000" stroke-width="1"/>
      <path id="Path_9" data-name="Path 9" d="M0,17" transform="translate(123 1694)" fill="none" stroke="#000" stroke-width="1"/>
      <line id="Line_8" data-name="Line 8" y2="20" transform="translate(108 1694)" fill="none" stroke="#000" stroke-width="1"/>
      <line id="Line_14" data-name="Line 14" y2="20" transform="translate(126 1694)" fill="none" stroke="#000" stroke-width="1"/>
      <path id="Path_7" data-name="Path 7" d="M0,17" transform="translate(111 1694)" fill="none" stroke="#000" stroke-width="1"/>
      <path id="Path_10" data-name="Path 10" d="M0,17" transform="translate(129 1694)" fill="none" stroke="#000" stroke-width="1"/>
      <line id="Line_10" data-name="Line 10" y2="20" transform="translate(114 1694)" fill="none" stroke="#000" stroke-width="1"/>
      <line id="Line_16" data-name="Line 16" y2="20" transform="translate(132 1694)" fill="none" stroke="#000" stroke-width="1"/>
      <path id="Path_8" data-name="Path 8" d="M0,17" transform="translate(117 1694)" fill="none" stroke="#000" stroke-width="1"/>
      <path id="Path_11" data-name="Path 11" d="M0,17" transform="translate(135 1694)" fill="none" stroke="#000" stroke-width="1"/>
      <line id="Line_18" data-name="Line 18" y2="20" transform="translate(138 1694)" fill="none" stroke="#000" stroke-width="1"/>
      <path id="Path_12" data-name="Path 12" d="M0,17" transform="translate(141 1694)" fill="none" stroke="#000" stroke-width="1"/>
      <line id="Line_20" data-name="Line 20" y2="20" transform="translate(144 1694)" fill="none" stroke="#000" stroke-width="1"/>
      <path id="Path_13" data-name="Path 13" d="M0,17" transform="translate(147 1694)" fill="none" stroke="#000" stroke-width="1"/>
      <line id="Line_22" data-name="Line 22" y2="20" transform="translate(150 1694)" fill="none" stroke="#000" stroke-width="1"/>
      <path id="Path_14" data-name="Path 14" d="M0,17" transform="translate(153 1694)" fill="none" stroke="#000" stroke-width="1"/>
      <line id="Line_24" data-name="Line 24" y2="20" transform="translate(156 1694)" fill="none" stroke="#000" stroke-width="1"/>
      <path id="Path_15" data-name="Path 15" d="M0,17" transform="translate(159 1694)" fill="none" stroke="#000" stroke-width="1"/>
      <g id="Rectangle_25" data-name="Rectangle 25" transform="translate(100 1694)" fill="#0292ff" stroke="#0292ff" stroke-width="1">
        <rect width="4" height="11" stroke="none"/>
        <rect x="0.5" y="0.5" width="3" height="10" fill="none"/>
      </g>
      <g id="Rectangle_26" data-name="Rectangle 26" transform="translate(112 1694)" fill="#0292ff" stroke="#0292ff" stroke-width="1">
        <rect width="4" height="11" stroke="none"/>
        <rect x="0.5" y="0.5" width="3" height="10" fill="none"/>
      </g>
      <g id="Rectangle_27" data-name="Rectangle 27" transform="translate(124 1694)" fill="#0292ff" stroke="#0292ff" stroke-width="1">
        <rect width="4" height="11" stroke="none"/>
        <rect x="0.5" y="0.5" width="3" height="10" fill="none"/>
      </g>
      <g id="Rectangle_28" data-name="Rectangle 28" transform="translate(106 1694)" fill="#0292ff" stroke="#0292ff" stroke-width="1">
        <rect width="4" height="11" stroke="none"/>
        <rect x="0.5" y="0.5" width="3" height="10" fill="none"/>
      </g>
      <g id="Rectangle_29" data-name="Rectangle 29" transform="translate(130 1694)" fill="#0292ff" stroke="#0292ff" stroke-width="1">
        <rect width="4" height="11" stroke="none"/>
        <rect x="0.5" y="0.5" width="3" height="10" fill="none"/>
      </g>
      <g id="Rectangle_30" data-name="Rectangle 30" transform="translate(142 1694)" fill="#0292ff" stroke="#0292ff" stroke-width="1">
        <rect width="4" height="11" stroke="none"/>
        <rect x="0.5" y="0.5" width="3" height="10" fill="none"/>
      </g>
      <g id="Rectangle_31" data-name="Rectangle 31" transform="translate(148 1694)" fill="#0292ff" stroke="#0292ff" stroke-width="1">
        <rect width="4" height="11" stroke="none"/>
        <rect x="0.5" y="0.5" width="3" height="10" fill="none"/>
      </g>
      <g id="Rectangle_32" data-name="Rectangle 32" transform="translate(154 1694)" fill="#0292ff" stroke="#0292ff" stroke-width="1">
        <rect width="4" height="11" stroke="none"/>
        <rect x="0.5" y="0.5" width="3" height="10" fill="none"/>
      </g>
    </g>
  </g>
</svg>
